<?xml version="1.0" encoding="utf-8"?>
<!-- Generator: Adobe Illustrator 24.0.1, SVG Export Plug-In . SVG Version: 6.00 Build 0)  -->
<svg version="1.1" id="Layer_1" xmlns="http://www.w3.org/2000/svg" xmlns:xlink="http://www.w3.org/1999/xlink" x="0px" y="0px"
	 viewBox="0 0 154.6 110.5" style="enable-background:new 0 0 154.6 110.5;" xml:space="preserve">
<style type="text/css">
	.st0{fill:#FFFFFF;stroke:#851722;stroke-width:0.25;stroke-miterlimit:10;}
	.st1{fill:#FFFFFF;}
	.st2{fill:#FFFFFF;stroke:#000000;stroke-width:0.25;stroke-miterlimit:10;}
	.st3{fill:#864835;}
	.st4{fill:#851722;}
	.st5{fill:#CD796B;}
	.st6{stroke:#2D2D2D;stroke-width:0.25;stroke-miterlimit:10;}
	.st7{fill:#2D2D2D;}
	.st8{fill:none;}
	.st9{fill:#F0A9CB;}
	.st10{fill:#E26DA6;}
	.st11{fill:#010202;}
	.st12{fill:#F1A8CA;}
	.st13{fill:none;stroke:#851722;stroke-width:0.25;stroke-miterlimit:10;}
	.st14{fill:#864835;stroke:#851722;stroke-width:0.25;stroke-miterlimit:10;}
</style>
<g>
	<path class="st0" d="M106.1,53.1c0,0,5.5-1.4,3.1-8.4c0,0,4.8-3.1,0.6-8.2c0,0-2.6-2.4-2.6-3.5c0-1.2,4.6-9.6-5.3-14.3
		c0,0-5.1-1.8-9.4,0.3c0,0-1.8,1.4-3.7-0.2c-1.9-1.6-6.6-4.5-10.9-3.6c-4.4,0.9-7.7,1.4-11.1,5c0,0-2,2.3-5.6,2s-8.4,0.9-11.2,4.1
		c-2.7,3.1-4.1,5.2-4.1,8.8c-0.1,3.6,0.8,5.7,0.8,5.7s1.3,1.7-0.6,3.2c-1.9,1.5-3.1,5.4-3,8.5s3.2,7.6,7.2,7.7c0,0-0.1,3.7,2,3.8
		s3.3-0.1,6.2-2L106.1,53.1z"/>
	<g>
		<path class="st1" d="M96.3,86.8c0,0,3.9-3.8,2.9-5.2c-1.1-1.4-6.6-6-10-6.7l-3.3,0.8l-2.7,1.7c0,0-0.4-1.1-4.6-1.5
			c0,0-3.1-1-5.3,0.3c-2.2,1.3-4.1,3.3-4.1,3.3L66.7,79l-0.4-0.6l-2.4-0.9c0,0,0.2,4.2-1.3,5.9l2,1.3l0.5-0.7c0,0,2.6,2.4,4.8,1.9
			s3.3-2.1,3.3-2.1h0.3c0,0,0.5,3.3,0.8,3.6c0.2,0.3,6.2,2,9.9,1.7c0,0,4.4,0,7.4-2.4v-5l2.2,1l0.1,0.3l-1.3,2.4
			c0,0,2.2,2.3,2.2,2.6L96.3,86.8z"/>
		<path d="M96.3,86.8c1.1-1.1,2.1-2.2,2.8-3.6c0.2-0.3,0.3-0.7,0.2-1.1c0-0.4-0.3-0.7-0.6-0.9c-0.5-0.6-1.1-1.1-1.7-1.6
			c-1.2-1-2.4-1.9-3.7-2.7c-1.3-0.8-2.7-1.6-4.2-1.9l0,0l-3.3,0.8l0,0l-2.7,1.7H83v-0.1c-0.2-0.3-0.6-0.5-1-0.7s-0.8-0.3-1.2-0.4
			c-0.8-0.2-1.6-0.3-2.4-0.4l0,0l0,0c-0.8-0.2-1.7-0.4-2.6-0.4s-1.8,0.2-2.5,0.6c-1.5,0.9-2.9,2.1-4.1,3.4l0,0l0,0L66.7,79l0,0l0,0
			l-0.4-0.6l0,0l-2.4-0.9l0.1-0.1c0,1,0,2.1-0.2,3.1s-0.4,2.1-1.1,2.9v-0.2l2,1.3h-0.1l0.5-0.7l0.1-0.1l0.1,0.1
			c0.6,0.5,1.2,1,1.9,1.3c0.7,0.3,1.4,0.6,2.2,0.6c0.8,0,1.5-0.3,2.2-0.6c0.7-0.4,1.3-0.9,1.7-1.5v-0.1h0.1h0.4h0.1v0.1
			c0.2,1.1,0.4,2.3,0.7,3.4c0,0.2,0.1,0.2,0.2,0.2c0.1,0.1,0.3,0.1,0.4,0.2c0.3,0.1,0.5,0.2,0.8,0.3c0.5,0.2,1.1,0.3,1.7,0.4
			c1.1,0.3,2.2,0.5,3.4,0.6c1.1,0.1,2.3,0.2,3.4,0.2l0,0l0,0c1.3,0,2.6-0.2,3.8-0.6c1.2-0.4,2.4-0.9,3.5-1.7v0.1v-5v-0.1h0.1l2.2,1
			l0,0l0,0l0.1,0.3l0,0l0,0l-1.3,2.4l0,0c0.4,0.4,0.8,0.8,1.1,1.3l0.5,0.7c0.2,0.2,0.4,0.4,0.5,0.7l0,0L96.3,86.8z M96.3,86.8
			l-1.5,1.3l0,0l0,0c-0.1-0.2-0.3-0.5-0.5-0.7l-0.6-0.6c-0.4-0.4-0.8-0.8-1.2-1.3l0,0l0,0l1.2-2.4l0,0l-0.1-0.3l0,0l-2.2-1l0.1-0.1
			v5l0,0l0,0c-1,0.8-2.2,1.4-3.5,1.8s-2.6,0.6-3.9,0.6l0,0c-2.3,0.2-4.6-0.3-6.8-0.8c-0.6-0.1-1.1-0.3-1.7-0.4
			c-0.3-0.1-0.6-0.2-0.8-0.3c-0.1,0-0.3-0.1-0.4-0.2c-0.1,0-0.2-0.1-0.2-0.1c-0.1-0.1-0.1-0.2-0.1-0.2c-0.3-1.1-0.5-2.3-0.7-3.4
			l0.1,0.1h-0.4l0.1-0.1c-0.5,0.7-1.1,1.2-1.8,1.6c-0.7,0.4-1.5,0.7-2.3,0.7s-1.6-0.3-2.3-0.7c-0.7-0.4-1.4-0.8-1.9-1.4h0.2
			l-0.5,0.7l-0.1,0.3l-0.1-0.1l-2-1.3l-0.1-0.1l0.1-0.1c0.6-0.8,0.9-1.8,1.1-2.8s0.2-2,0.2-3.1v-0.1l0.1,0.1l2.4,0.9l0,0l0,0
			l0.4,0.6h-0.1l2.5,0.5h-0.1c1.2-1.3,2.6-2.5,4.2-3.4c0.8-0.5,1.7-0.6,2.6-0.6s1.8,0.1,2.7,0.4l0,0c0.8,0.1,1.7,0.2,2.5,0.4
			c0.4,0.1,0.8,0.2,1.2,0.4c0.4,0.2,0.8,0.4,1,0.8H83l2.7-1.7l0,0l0,0l3.3-0.8l0,0l0,0c1.5,0.3,2.9,1.1,4.2,1.9
			c1.3,0.8,2.5,1.7,3.7,2.7c0.6,0.5,1.2,1,1.7,1.6c0.3,0.3,0.6,0.6,0.6,1c0.1,0.4-0.1,0.8-0.2,1.1C98.4,84.6,97.4,85.8,96.3,86.8z"
			/>
	</g>
	<ellipse class="st2" cx="82.2" cy="75.8" rx="4.9" ry="2.6"/>
	<g>
		<path class="st3" d="M104.7,53.5c0,0,1.2,3.8,0,7c0,0,0.1,3.1-0.4,4c-0.5,0.9-1.3,3.2-4.1,3.6c0,0-0.7,2.6-1.5,3.8
			s-1.7,4.5-1.5,5.2c0,0-1.5-0.8-0.5-3.1c0.9-2.3,1.9-3,1.8-5.2c0,0-1.8,4.9-12.6,7l-2.7,1.7c0,0-0.3-0.9-3.3-1.4s-8.2-0.1-10.5-1.8
			s-2.1-1.6-2.1-1.6l-2.2-0.1c0,0-0.9,3.9,0,5.9c0,0-1.8-2.2-1.3-6c0,0-3.1-1.2-3.7-3.4c0,0-0.7-1.8-0.2-3.8c0,0-3.1-0.3-1.7-7.4
			c0,0,2-5.7,7.2-8.8c0,0,5.6-5,15.3-5.7C88.8,42.7,101.6,48,104.7,53.5z"/>
		<path class="st4" d="M104.9,53.8c0.1,0.5,0.2,0.9,0.3,1.4c0.1,0.6,0.1,1.2,0.2,1.8c0,1.2-0.1,2.4-0.6,3.5l0,0c0,0.8,0,1.6-0.1,2.5
			c0,0.4-0.1,0.8-0.2,1.2s-0.3,0.8-0.5,1.1c-0.4,0.7-0.9,1.4-1.5,1.9c-0.7,0.5-1.5,0.8-2.3,1l0.1-0.1c-0.2,0.8-0.5,1.5-0.8,2.3
			c-0.1,0.4-0.3,0.7-0.5,1.1s-0.4,0.7-0.6,1c-0.3,0.7-0.6,1.5-0.8,2.2c-0.2,0.8-0.4,1.6-0.4,2.3v0.2L97,77.1c-0.7-0.5-1-1.3-0.9-2.1
			c0.1-0.8,0.4-1.5,0.8-2.2c0.3-0.7,0.7-1.3,1-2s0.4-1.4,0.3-2.2h0.2c-0.5,1.2-1.4,2.1-2.4,2.9c-1,0.8-2,1.4-3.2,2
			c-1.1,0.6-2.3,1-3.5,1.4l-1.8,0.5l-1.8,0.4l0,0L83,77.5h-0.1l-0.1-0.1c-0.4-0.5-1.1-0.8-1.8-1c-0.7-0.2-1.4-0.3-2.1-0.4
			c-1.4-0.2-2.9-0.2-4.3-0.3c-1.4-0.1-2.9-0.3-4.2-0.7c-0.7-0.2-1.3-0.6-1.9-1.1l-0.9-0.7L67.5,73l-0.2-0.2l-0.1-0.1h-0.1l0,0l0,0
			l0,0l0,0c-0.1,0.1,0.1-0.1,0.1-0.1v0.1L65,72.6l0.1-0.1c-0.2,1-0.3,2-0.4,2.9c0,1,0,2,0.4,2.9l0.2,0.5L65,78.4
			c-0.6-0.9-1-1.9-1.2-2.9s-0.2-2.1-0.1-3.1v0.1c-0.8-0.3-1.5-0.8-2.2-1.3S60.3,70,60,69.1l0,0c-0.4-1.2-0.5-2.6-0.2-3.8v0.1
			c-0.7-0.1-1.2-0.7-1.6-1.3c-0.3-0.6-0.4-1.3-0.5-2c-0.1-1.4,0.1-2.8,0.3-4.1l0,0l0,0c0.7-1.8,1.7-3.5,2.9-5c0.6-0.8,1.3-1.5,2-2.1
			c0.7-0.7,1.5-1.2,2.3-1.7l0,0c2.8-2.3,6.2-3.8,9.8-4.8c1.8-0.5,3.6-0.8,5.4-0.9c1.8-0.1,3.7,0,5.5,0.3c3.6,0.6,7.1,1.7,10.4,3.3
			c1.6,0.8,3.2,1.7,4.7,2.8S103.9,52.2,104.9,53.8L104.9,53.8z M104.5,53.2c-0.9-1.4-2.2-2.6-3.6-3.5c-1.5-1.1-3.1-2-4.7-2.7
			c-3.3-1.6-6.8-2.7-10.4-3.3c-1.8-0.3-3.6-0.4-5.4-0.3c-1.8,0.1-3.6,0.5-5.4,0.9c-3.5,1-6.9,2.5-9.7,4.8l0,0l0,0
			c-0.8,0.5-1.6,1.1-2.3,1.7c-0.7,0.6-1.4,1.3-2,2.1c-1.2,1.5-2.2,3.2-2.9,4.9l0,0c-0.2,1.4-0.4,2.7-0.3,4.1c0.1,0.7,0.2,1.4,0.5,2
			c0.3,0.6,0.8,1.2,1.5,1.3h0.1v0.1c-0.3,1.2-0.2,2.6,0.2,3.8l0,0l0,0c0.2,0.8,0.8,1.5,1.4,2c0.7,0.5,1.4,1,2.2,1.3l0,0l0,0
			c-0.1,1-0.1,2.1,0.1,3.1s0.6,2,1.2,2.8l-0.1,0.1c-0.4-0.9-0.4-2-0.4-3s0.2-2,0.4-3v-0.1H65l2.2,0.1v0.1c1.4,0.6,2.2,1.8,3.6,2.2
			c1.3,0.5,2.8,0.6,4.2,0.7c1.4,0.1,2.9,0.2,4.3,0.3c0.7,0.1,1.4,0.2,2.1,0.4c0.3,0.1,0.7,0.2,1,0.4c0.3,0.2,0.7,0.3,0.9,0.7h-0.1
			l2.7-1.7l0,0l0,0l1.8-0.4l1.8-0.5c1.2-0.4,2.3-0.8,3.4-1.3s2.2-1.2,3.1-1.9c0.9-0.8,1.8-1.7,2.3-2.8l0.2-0.4v0.4
			c0,0.8-0.1,1.5-0.4,2.3c-0.3,0.7-0.7,1.4-1,2c-0.3,0.7-0.7,1.4-0.7,2.1c-0.1,0.7,0.2,1.5,0.8,1.9L97,77c-0.1-0.9,0.2-1.6,0.4-2.4
			c0.2-0.8,0.5-1.5,0.8-2.3c0.2-0.4,0.4-0.7,0.6-1s0.3-0.7,0.5-1.1c0.3-0.7,0.5-1.5,0.7-2.3v-0.1h0.1c0.8-0.1,1.6-0.4,2.2-0.9
			s1.1-1.2,1.5-1.9c0.2-0.4,0.4-0.7,0.5-1.1c0.1-0.4,0.2-0.8,0.2-1.2c0.1-0.8,0.1-1.6,0.1-2.4l0,0l0,0c0.4-1.1,0.6-2.3,0.5-3.4
			c0-0.6-0.1-1.2-0.2-1.8s-0.2-1.2-0.4-1.7V53.2z"/>
	</g>
	<ellipse cx="73.4" cy="62.7" rx="2.8" ry="3.7"/>
	<ellipse cx="89.3" cy="60.3" rx="2.7" ry="3.7"/>
	<g>
		<path class="st5" d="M85.2,65.5c0.1,0.3,0,0.6,0,0.9c-0.2,0.3-0.3,0.5-0.6,0.7c-0.4,0.4-1,0.8-1.6,0.9s-1.2,0-1.8-0.2
			c-0.3-0.1-0.5-0.2-0.8-0.4c-0.2-0.3-0.4-0.5-0.5-0.8c0.3,0,0.6,0.1,0.9,0.1c0.2,0.1,0.5,0.2,0.7,0.3c0.5,0.2,1,0.2,1.4,0.2
			c0.5-0.1,0.9-0.3,1.2-0.6c0.2-0.2,0.3-0.4,0.4-0.6C84.7,65.8,85,65.7,85.2,65.5z"/>
	</g>
	<ellipse class="st4" cx="82" cy="63.2" rx="0.9" ry="0.7"/>
	<ellipse class="st1" cx="87.8" cy="59.7" rx="0.7" ry="1.1"/>
	<ellipse class="st1" cx="71.6" cy="62.2" rx="0.7" ry="1.1"/>
	<g>
		<path d="M74.5,56.9c-0.8,0.4-1.4,0.6-1.9,0.7L71.3,58c-0.3,0.1-0.6,0.2-1,0.3s-0.9,0.5-1.7,0.9c-0.4-0.7-0.5-1.6-0.1-2.4
			c0.3-0.8,1.1-1.5,2-1.7c0.8-0.3,1.7-0.2,2.4,0.1C73.5,55.6,74.1,56.1,74.5,56.9z"/>
	</g>
	<g>
		<path d="M86,54.6c0-0.9,0.5-1.5,1.1-2s1.5-0.7,2.3-0.6c0.8,0.1,1.6,0.5,2.1,1c0.3,0.3,0.4,0.6,0.6,0.9c0.1,0.4,0.2,0.7,0.2,1.2
			c-0.5,0-0.8,0-1.1,0c-0.3,0-0.6,0-0.9,0c-0.5,0-0.9,0-1.2-0.1l-1.2-0.3C87.4,54.7,86.8,54.6,86,54.6z"/>
	</g>
	<path class="st6" d="M78.7,43.7c0,0,6.5,8.8,13.8,11.7l1.8,3.2c0,0,1.5-4.4,0.8-7.3l3.8,2.8c0,0-0.5,0.7-0.7,0.7
		c-0.1,0,1.3,2.1,1.3,3.8s-0.3,2.6-0.3,2.6l0.3-0.1c0,0,0.4-2.2,0.7-2.5c0.3-0.3,3.6-1.1,4.4,1.9c0,0,0.8-4.4,0-7
		C104.7,53.5,96.3,42.5,78.7,43.7z"/>
	<g>
		<path class="st7" d="M82,43.6c1.8,1.9,3.6,3.9,5.4,5.8c1.7,2,3.5,3.9,5.2,6c-1.8-1.9-3.6-3.9-5.4-5.8C85.5,47.6,83.7,45.6,82,43.6
			z"/>
	</g>
	<g>
		<path class="st7" d="M85.5,44.3c1.1,0.8,2.1,1.6,3.1,2.6c1,0.9,1.9,1.9,2.8,2.9c0.8,1.1,1.6,2.2,2.1,3.4c0.6,1.2,0.9,2.6,0.8,3.9
			c0-1.4-0.4-2.7-0.9-3.9c-0.6-1.2-1.3-2.3-2.2-3.3c-0.8-1.1-1.7-2-2.7-3C87.5,46.1,86.5,45.1,85.5,44.3z"/>
	</g>
	<g>
		<path class="st7" d="M89.5,45.9c1.6,1.2,2.9,2.7,3.9,4.4c0.5,0.9,0.9,1.8,1.1,2.7c0.3,0.9,0.3,1.9,0.3,2.9c-0.1-1-0.2-1.9-0.5-2.9
			c-0.3-0.9-0.7-1.8-1.2-2.6s-1-1.6-1.6-2.4C90.9,47.3,90.2,46.6,89.5,45.9z"/>
	</g>
	<g>
		<path class="st7" d="M91.2,45c1,0.9,1.8,1.8,2.5,2.9c0.4,0.5,0.7,1.1,1,1.7c0.3,0.6,0.5,1.2,0.4,1.9c0-0.6-0.3-1.2-0.6-1.8
			c-0.3-0.5-0.7-1.1-1-1.6C92.8,47,92,46,91.2,45z"/>
	</g>
	<g>
		<path class="st7" d="M94.3,47.7c2.2,0.9,4.2,2,6.1,3.3c0.9,0.7,1.9,1.4,2.7,2.2c0.8,0.8,1.5,1.8,2,2.9c-0.5-1-1.3-1.9-2.1-2.7
			c-0.8-0.8-1.7-1.5-2.7-2.2c-0.9-0.7-1.9-1.3-2.9-1.9C96.3,48.8,95.3,48.2,94.3,47.7z"/>
	</g>
	<g>
		<path class="st7" d="M80.3,43.5c0.8,0.8,1.5,1.7,2.3,2.5s1.5,1.6,2.3,2.4c0.8,0.8,1.6,1.6,2.5,2.3s1.7,1.4,2.7,2
			c-1.1-0.4-2-1.1-2.9-1.8s-1.7-1.5-2.5-2.3C83.2,47,81.7,45.3,80.3,43.5z"/>
	</g>
	<g>
		<path class="st7" d="M77.5,43.9c0.6,1.1,1.2,2.1,1.9,3c0.7,1,1.5,1.9,2.3,2.7c0.8,0.9,1.7,1.6,2.7,2.3s2,1.2,3.1,1.7
			c-1.1-0.4-2.2-0.9-3.2-1.5c-1-0.7-1.9-1.4-2.8-2.3C79.8,48.1,78.4,46.1,77.5,43.9z"/>
	</g>
	<g>
		<path class="st7" d="M78.2,43.8c1.5,1.8,3,3.6,4.6,5.3c0.8,0.9,1.6,1.7,2.5,2.4c0.9,0.8,1.8,1.5,2.8,2c-1.1-0.4-2.1-1.1-3-1.8
			c-0.9-0.8-1.7-1.6-2.5-2.4C81,47.5,79.6,45.7,78.2,43.8z"/>
	</g>
	<g>
		<path class="st7" d="M71.7,45.7c-0.4,1-0.7,2.1-1,3.2c-0.2,1.1-0.4,2.2-0.5,3.3C70,54.4,70,56.7,70.3,59c-0.1-0.6-0.2-1.1-0.3-1.7
			c0-0.6-0.1-1.1-0.1-1.7c-0.1-1.1,0-2.3,0.1-3.4C70.2,49.9,70.7,47.7,71.7,45.7z"/>
	</g>
	<path class="st6" d="M64,63.4l-0.4-2.6l1.4-3c0,0-1.5,0.3-1.5-0.2c0-0.4,2.2-6.1,4.1-6.9c0,0-0.6,9.4,1.9,10.7l0.3-1.8
		c0,0-2.5-6.2,1.2-13.7c0,0-6.4,2.4-9.9,6.7s-3.4,7.8-3.4,7.8s-0.5,4.1,2.1,4.8C59.8,65.2,61.2,62.1,64,63.4z"/>
	<g>
		<path class="st7" d="M99,54.1c0.4,0.3,0.8,0.6,1.2,0.9c0.3,0.3,0.7,0.7,1,1.1c-0.4-0.3-0.8-0.6-1.2-0.9
			C99.6,54.9,99.3,54.5,99,54.1z"/>
	</g>
	<g>
		<path class="st7" d="M101.9,55.1c0.7,0.7,1.3,1.5,1.9,2.3c0.3,0.4,0.5,0.9,0.7,1.3c0.2,0.5,0.3,1,0.3,1.5c0-0.5-0.2-0.9-0.4-1.4
			c-0.2-0.4-0.5-0.9-0.7-1.3C103.1,56.7,102.5,55.9,101.9,55.1z"/>
	</g>
	<g>
		<path class="st7" d="M98.3,54.8c0.4,0.2,0.7,0.4,1,0.7s0.6,0.5,0.9,0.9c-0.4-0.2-0.7-0.4-1-0.7S98.6,55.2,98.3,54.8z"/>
	</g>
	<g>
		<path class="st7" d="M65.9,50.7c-0.6,0.7-1.2,1.5-1.7,2.2c-0.5,0.8-1,1.6-1.5,2.4c-0.4,0.8-0.8,1.7-1.1,2.6
			c-0.3,0.9-0.4,1.8-0.5,2.8c-0.1-0.9,0-1.9,0.3-2.8c0.3-0.9,0.6-1.8,1.1-2.7C63.4,53.6,64.5,52,65.9,50.7z"/>
	</g>
	<g>
		<path class="st7" d="M64.3,55L63,58.2c-0.2,0.5-0.4,1.1-0.6,1.6c-0.2,0.5-0.4,1.1-0.4,1.7c-0.1-0.6,0.1-1.2,0.2-1.7
			c0.2-0.6,0.4-1.1,0.6-1.6C63.3,57.1,63.7,56,64.3,55z"/>
	</g>
	<g>
		<line class="st8" x1="63.2" y1="59.7" x2="61.8" y2="63.2"/>
		<path class="st7" d="M63.2,59.7c-0.1,0.6-0.3,1.2-0.5,1.8s-0.5,1.2-0.8,1.7c0.1-0.6,0.3-1.2,0.5-1.8
			C62.6,60.8,62.9,60.2,63.2,59.7z"/>
	</g>
	<g>
		<path class="st7" d="M64,63.4c0.2,0.5,0.3,1.1,0.5,1.6l0.2,0.8c0.1,0.3,0.1,0.5,0.3,0.8c-0.4-0.4-0.6-1-0.7-1.5
			C64.1,64.6,64,64,64,63.4z"/>
	</g>
	<g>
		<path d="M64.5,65.8c0,0-0.8,5.1-0.8,6.6c0,0-0.3,4.1,1.3,6c0,0-0.9-1.7,0-5.9c0,0,0.5-3.7,0.4-4.6L64.5,65.8z"/>
		<g>
			<path class="st4" d="M64.5,65.8L64.1,69c-0.1,1.1-0.3,2.1-0.4,3.2s0,2.1,0.1,3.2c0.2,1,0.5,2.1,1.2,2.9l-0.2,0.1
				c-0.2-0.5-0.3-1-0.4-1.5s-0.1-1,0-1.5c0-1,0.2-2,0.4-3l0,0c0.1-0.8,0.2-1.5,0.3-2.3l0.1-1.1c0-0.4,0.1-0.8,0-1.1l0,0L64.5,65.8z
				 M64.5,65.8l0.9,2.1l0,0l0,0c0.1,0.8,0,1.5-0.1,2.3s-0.2,1.5-0.3,2.3l0,0l0,0c-0.2,1-0.4,2-0.4,2.9c0,0.5,0,1,0.1,1.5
				s0.2,1,0.4,1.4l0.5,1l-0.7-0.8c-0.7-0.9-1-2-1.2-3c-0.2-1.1-0.2-2.2-0.1-3.2C63.8,70,64.1,67.9,64.5,65.8z"/>
		</g>
	</g>
	<g>
		<path class="st7" d="M99.1,70.2C99,70.8,99,71.4,99,72c0,0.6,0.1,1.2,0.2,1.8c0.1,0.6,0.3,1.2,0.6,1.7c0.3,0.5,0.8,0.9,1.3,1.2
			c-0.6-0.2-1.1-0.6-1.5-1.1s-0.6-1.1-0.7-1.7C98.7,72.6,98.8,71.4,99.1,70.2z"/>
	</g>
	<ellipse transform="matrix(0.5705 -0.8213 0.8213 0.5705 -7.7571 111.2616)" class="st5" cx="102.5" cy="63" rx="1.7" ry="1.3"/>
	<g>
		<path class="st4" d="M101.2,63.8c-0.2-0.6-0.1-1.3,0.3-1.8c0.2-0.2,0.5-0.4,0.8-0.5s0.6-0.1,0.9,0c-0.6,0.1-1.2,0.2-1.5,0.7
			c-0.2,0.2-0.3,0.5-0.4,0.7C101.2,63.2,101.2,63.5,101.2,63.8z"/>
	</g>
	<g>
		<path class="st4" d="M101.7,62c0.3,0,0.6,0.2,0.8,0.3c0.1,0.1,0.2,0.2,0.3,0.3c0.1,0.1,0.1,0.3,0.1,0.5c0-0.1-0.1-0.2-0.2-0.3
			s-0.2-0.2-0.3-0.3C102.1,62.3,101.9,62.2,101.7,62z"/>
	</g>
	<path d="M99.5,62.7c0,0,0.8,3.7,0.6,5v0.5c0,0-0.9,2.6-2,4.8c-1.2,2.2-1.2,4-1,4.2s-1.2-0.8-0.7-2.5s1.8-3.5,2-4.9
		C98.5,68.5,99.2,62.9,99.5,62.7z"/>
	<g>
		<path class="st7" d="M64.2,68.1c-0.5,1.3-1,2.5-1.4,3.8c-0.2,0.6-0.4,1.3-0.5,2s-0.2,1.3-0.1,2c-0.2-0.7-0.2-1.4-0.1-2
			c0.1-0.7,0.3-1.4,0.5-2C63,70.6,63.5,69.3,64.2,68.1z"/>
	</g>
	<ellipse transform="matrix(0.5 -0.866 0.866 0.5 -28.3188 88.2886)" class="st5" cx="62.3" cy="68.7" rx="1.3" ry="1.7"/>
	<g>
		<path class="st4" d="M61.1,67.5c0.2-0.2,0.5-0.4,0.9-0.4c0.3,0,0.7,0.1,0.9,0.2c0.3,0.2,0.5,0.4,0.7,0.7c0.2,0.3,0.3,0.5,0.4,0.8
			c-0.2-0.2-0.4-0.5-0.6-0.7c-0.2-0.2-0.4-0.4-0.7-0.6C62.3,67.2,61.7,67.2,61.1,67.5z"/>
	</g>
	<g>
		<path class="st4" d="M62.9,67.5c-0.2,0.1-0.5,0.2-0.7,0.3c-0.1,0-0.2,0.1-0.3,0.2c-0.1,0.1-0.2,0.1-0.2,0.3c0-0.1,0-0.3,0.1-0.4
			c0.1-0.1,0.2-0.2,0.3-0.2C62.3,67.5,62.6,67.5,62.9,67.5z"/>
	</g>
	<path class="st9" d="M71.3,92.3c0,0,1.2-3.9,2.9-4.8c0,0,10.1,4.4,17.2-0.7c0,0,3.1,2.2,3.3,4.1C94.8,91,79.2,100,71.3,92.3z"/>
	<circle class="st4" cx="80.4" cy="81.3" r="0.7"/>
	<circle class="st4" cx="80.4" cy="83.9" r="0.7"/>
	<circle class="st4" cx="80.4" cy="86.5" r="0.7"/>
	<circle class="st4" cx="83.9" cy="81.3" r="0.7"/>
	<circle class="st4" cx="87.1" cy="78.4" r="0.7"/>
	<circle class="st4" cx="83.9" cy="83.9" r="0.7"/>
	<circle class="st4" cx="83.9" cy="86.5" r="0.7"/>
	<path class="st0" d="M105,55.4c0,0,6.2-8.4-4.9-18.9s-29.2-3.9-34.6-0.4s-13,12.8-7.6,21.7c0,0,2.9-9.2,16.6-13.5
		c0,0,14.5-5.5,30,8.6C104.6,52.9,105.2,54.5,105,55.4z"/>
	<path class="st10" d="M74,88c0,0,3.7,3.3,11.4,2.4c0,0,3.6-0.4,4.3-1.3c0,0,2.2,1.7,2.5,3.2c0,0,1.7-0.8,2.5-1.3
		c0-0.7-1.6-3.4-3.3-4.1c0,0-3.8,2.9-10.1,2.3c0,0-4.8-0.4-7.2-1.7L74,88z"/>
	<g>
		<path class="st11" d="M69.7,81.7c0-0.4-0.2-0.8-0.4-1.1c-0.2-0.4-0.5-0.7-0.7-1l-0.2-0.3l0.4,0.1c0.4,0.1,0.7,0.3,1,0.5
			s0.7,0.4,0.9,0.7l0,0c-0.3-0.2-0.6-0.4-1-0.5l-1-0.5l0.1-0.2c0.2,0.3,0.5,0.7,0.7,1.1C69.6,80.9,69.8,81.3,69.7,81.7L69.7,81.7z"
			/>
	</g>
	<g>
		<path class="st12" d="M82.8,78.3c0,0,3.4,1.3,3.6,2.5s0.1,8.1,0.1,8.1l0.9-0.2l-0.1-8c0,0-0.5-1.5-3.8-2.5L82.8,78.3z"/>
		<g>
			<path class="st4" d="M82.8,78.3c1,0.4,2,0.8,2.8,1.4c0.4,0.3,0.9,0.7,0.9,1.3c0.1,0.5,0.1,1.1,0.1,1.6c0,2.1,0,4.2,0,6.3
				l-0.1-0.1l0.9-0.2l-0.1,0.1l-0.1-8l0,0c-0.1-0.3-0.4-0.6-0.7-0.9c-0.3-0.3-0.6-0.5-0.9-0.7c-0.6-0.4-1.4-0.7-2.1-1l0,0L82.8,78.3
				z M82.8,78.3l0.7-0.1l0,0l0,0c0.8,0.2,1.5,0.4,2.2,0.8c0.4,0.2,0.7,0.4,1,0.7c0.3,0.3,0.6,0.6,0.7,1l0,0l0,0l0.1,8v0.1h-0.1
				l-0.9,0.3h-0.2v-0.2c0-2.1,0-4.2,0-6.3c0-0.5,0-1-0.1-1.6c0-0.5-0.4-0.8-0.8-1.2C84.7,79.3,83.7,78.8,82.8,78.3z"/>
		</g>
	</g>
	<g>
		<path class="st11" d="M93.8,83.1c0.2-0.3,0.5-0.5,0.9-0.7c0.3-0.2,0.7-0.3,1.1-0.2l0,0c-0.4,0.1-0.7,0.2-1,0.3
			C94.4,82.7,94.1,82.9,93.8,83.1L93.8,83.1z"/>
	</g>
	<g>
		<path class="st11" d="M93.7,82.8c0.2-0.3,0.4-0.5,0.6-0.8c0.1-0.1,0.2-0.2,0.4-0.3c0.1-0.1,0.3-0.2,0.5-0.1l0,0
			c-0.1,0.1-0.2,0.2-0.3,0.3c-0.1,0.1-0.2,0.2-0.4,0.3C94.2,82.4,93.9,82.6,93.7,82.8L93.7,82.8z"/>
	</g>
	<path class="st13" d="M93.2,84.3c0,0,2.7,2.5,2.7,2.9l-1.2,1c0,0-1.4-2.1-2.2-2.6L93.2,84.3z"/>
	<g>
		<path class="st1" d="M66.2,78.5c0,0-0.5,4.7-1.2,5.7l-0.5,0.6l-2-1.3c0,0,1.9-3.3,1.3-5.9L66.2,78.5z"/>
		<path d="M66.2,78.5c0,0.6-0.1,1.1-0.1,1.7s-0.1,1.1-0.2,1.6s-0.2,1.1-0.4,1.6c-0.1,0.3-0.2,0.5-0.4,0.8l-0.5,0.7L64.5,85l-0.1-0.1
			l-2-1.3l-0.1-0.1l0.1-0.1c0.5-0.9,0.9-1.9,1.1-2.8c0.2-1,0.4-2,0.1-3l0,0v-0.2l0.2,0.1c0.4,0.2,0.8,0.4,1.2,0.5L66.2,78.5z
			 M66.2,78.5l-1.3-0.4c-0.4-0.1-0.8-0.2-1.2-0.4l0.2-0.1l0,0c0.2,1,0.1,2.1-0.1,3.1c-0.3,1-0.7,2-1.2,2.9v-0.2l2,1.3h-0.2l0.5-0.7
			c0.1-0.2,0.2-0.5,0.3-0.7c0.2-0.5,0.3-1.1,0.4-1.6s0.2-1.1,0.3-1.6C66,79.6,66.1,79,66.2,78.5z"/>
	</g>
	<g>
		<path class="st1" d="M61.9,80.7c0,0-0.7,1.9,0.6,2.7l0.8-1.7L61.9,80.7z"/>
		<path d="M61.9,80.7c0,0.3-0.1,0.5,0,0.7c0,0.2,0,0.5,0,0.7c0.1,0.5,0.3,0.9,0.7,1.2l-0.2,0.1l0.8-1.7v0.1l-0.6-0.5
			C62.4,81.2,62.2,81,61.9,80.7z M61.9,80.7c0.2,0.1,0.4,0.3,0.7,0.4l0.7,0.6l0.1,0.1v0.1l-0.8,1.7l0,0.1l-0.1-0.1
			c-0.5-0.3-0.7-0.8-0.8-1.3c0-0.3,0-0.5,0-0.8C61.7,81.2,61.8,81,61.9,80.7z"/>
	</g>
	<g>
		<path class="st3" d="M63.6,77.9L63,77.6c0,0-1-1.9-2.2-1.7l-0.4,0.5L61,77c0,0-2.2-0.8-3.2-0.3s0.7,0.5,0.7,0.5s-2.4-0.1-2.5,0.7
			c0,0,0.3,0.4,0.7,0.3h1.7c0,0-2.1-0.1-2.2,0.6s0.7,0,1.5,0.2s2.6,1.3,2.6,1.3l2.8,1.4C63.3,81.7,64.1,79.4,63.6,77.9z"/>
		<g>
			<path class="st4" d="M63.6,77.9L63,77.6l0,0l0,0c-0.3-0.4-0.6-0.8-0.9-1.1c-0.4-0.3-0.8-0.5-1.3-0.4l0,0h0.1l-0.4,0.5l0,0v-0.2
				l0.6,0.6l0.4,0.4L61,77.2c-0.7-0.2-1.5-0.4-2.3-0.5c-0.4,0-0.8,0.1-1,0.3c-0.1-0.1,0.1,0.1,0.3,0.1s0.4,0,0.6,0v0.2
				c-0.5,0-0.9,0-1.4,0.1c-0.2,0-0.4,0.1-0.6,0.2c-0.2,0.1-0.4,0.2-0.4,0.3v-0.1c0.1,0.2,0.4,0.3,0.6,0.2l0,0l0,0h1.7v0.2
				c-0.4,0-0.8,0-1.3,0.1c-0.4,0.1-0.9,0.2-0.8,0.6c0,0.1,0.2,0.1,0.4,0c0.2,0,0.4-0.1,0.7-0.1c0.5,0,0.9,0.2,1.3,0.4
				c0.8,0.3,1.5,0.8,2.3,1.2l2.3,1.2l-0.2,0.1c0.2-0.6,0.4-1.2,0.5-1.8C63.7,79.2,63.8,78.6,63.6,77.9z M63.6,77.9
				c0.2,0.6,0.2,1.3,0.2,1.9c-0.1,0.6-0.2,1.3-0.4,1.9v0.1l-0.1-0.1l-2.4-1c-0.8-0.4-1.5-0.8-2.3-1.2c-0.4-0.2-0.8-0.4-1.2-0.4
				c-0.2,0-0.4,0-0.6,0.1c-0.1,0-0.2,0-0.3,0.1c-0.1,0-0.1,0-0.2,0c-0.1,0-0.1-0.1-0.1-0.2c-0.1-0.3,0.1-0.6,0.4-0.7
				c0.2-0.1,0.4-0.2,0.6-0.2c0.4-0.1,0.9-0.1,1.3-0.1v0.2h-1.7l0,0c-0.2,0-0.3,0-0.5,0c-0.1-0.1-0.3-0.2-0.4-0.3l0,0l0,0
				c0.1-0.3,0.3-0.5,0.6-0.6c0.2-0.1,0.5-0.1,0.7-0.2c0.5-0.1,0.9-0.1,1.4-0.1v0.2c-0.2,0-0.4,0-0.6,0c-0.1,0-0.2,0-0.3-0.1
				c-0.1,0-0.1,0-0.2-0.1c0,0,0-0.1,0-0.2c0,0,0-0.1,0.1-0.1c0.4-0.3,0.8-0.4,1.2-0.4c0.8,0,1.6,0.2,2.4,0.5l-0.1,0.2l-0.6-0.6
				l-0.1-0.1l0.1-0.1l0,0l0.4-0.5l0,0l0,0l0,0c0.6-0.1,1.1,0.2,1.4,0.6c0.4,0.4,0.6,0.8,0.9,1.2l0,0L63.6,77.9z"/>
		</g>
	</g>
	<g>
		<path class="st4" d="M59.4,78c0.3-0.1,0.7-0.1,1-0.1c0.2,0,0.4,0,0.5,0.1c0.2,0.1,0.3,0.3,0.3,0.4l0,0c-0.1-0.1-0.3-0.2-0.4-0.2
			c-0.1-0.1-0.3-0.1-0.4-0.1C60.1,78,59.7,78,59.4,78L59.4,78z"/>
	</g>
	<path class="st14" d="M92.6,85.5c0,0-1.7,1.3-1.7,2.8c0,0,0.2,0.1,0.5-0.1s0.5-0.7,0.5-0.7s0.1,1.2,0.3,1.2c0.3,0,0.6-0.6,0.6-0.6
		s0,0.8,0.4,0.7s1.6-0.7,1.6-0.7S93,85.7,92.6,85.5z"/>
	<g>
		<path class="st4" d="M103.9,29c-0.5,1.1-1.1,2.2-1.9,3.2c-0.4,0.5-0.8,0.9-1.3,1.3c-0.5,0.4-1.1,0.7-1.7,0.6
			c0.6,0,1.2-0.3,1.6-0.7c0.5-0.4,0.9-0.8,1.2-1.3C102.6,31.1,103.3,30.1,103.9,29z"/>
	</g>
	<g>
		<path class="st4" d="M103.3,34.4c-0.5,0.3-1,0.5-1.5,0.6c-0.5,0.1-1.1,0.3-1.6,0.1c0.3,0,0.5-0.1,0.8-0.1c0.3-0.1,0.5-0.1,0.8-0.2
			C102.3,34.6,102.8,34.5,103.3,34.4z"/>
	</g>
	<g>
		<path class="st4" d="M109.8,40.7c-0.7,0.6-1.6,0.9-2.5,1.1c-0.5,0.1-0.9,0.1-1.4,0.1s-0.9-0.1-1.4-0.1c0.9,0,1.8-0.1,2.7-0.2
			c0.4-0.1,0.9-0.2,1.3-0.3C109,41.1,109.4,40.9,109.8,40.7z"/>
	</g>
	<g>
		<path class="st4" d="M107.5,43.5c-0.4,0.1-0.8,0-1.1,0c-0.4-0.1-0.7-0.1-1.1-0.3c0.4-0.1,0.8,0,1.1,0
			C106.8,43.3,107.1,43.3,107.5,43.5z"/>
	</g>
	<g>
		<path class="st4" d="M88.3,25.1c0.2,1,0.3,2.1,0.1,3.1c-0.1,0.5-0.2,1-0.4,1.5c-0.2,0.5-0.6,0.9-1,1.2c0.7-0.8,1-1.7,1.2-2.8
			c0.1-0.5,0.1-1,0.1-1.5C88.3,26.1,88.3,25.6,88.3,25.1z"/>
	</g>
	<g>
		<path class="st4" d="M74.6,21.7c0,1.8,0,3.5,0.2,5.3c0.1,0.9,0.3,1.7,0.6,2.6c0.3,0.8,0.7,1.6,1.5,2.1c-0.8-0.4-1.3-1.2-1.6-2.1
			c-0.3-0.8-0.5-1.7-0.6-2.6C74.4,25.3,74.4,23.5,74.6,21.7z"/>
	</g>
	<g>
		<path class="st4" d="M72.6,28.8c0.4,0.6,0.7,1.2,1.1,1.8c0.2,0.3,0.4,0.6,0.6,0.9s0.4,0.6,0.7,0.7c-0.3-0.1-0.6-0.4-0.8-0.6
			c-0.2-0.3-0.4-0.6-0.6-0.8C73.1,30.1,72.8,29.5,72.6,28.8z"/>
	</g>
	<g>
		<path class="st4" d="M51,56.1c0.5,0,1,0,1.5,0s1,0,1.5-0.1c0.5,0,1-0.1,1.5-0.2c0.5-0.1,1-0.2,1.4-0.4C56.1,56,55,56.2,54,56.3
			C53,56.3,52,56.3,51,56.1z"/>
	</g>
	<g>
		<path class="st4" d="M57.3,56.4c-0.2,0.5-0.5,0.8-0.9,1.2c-0.4,0.3-0.8,0.6-1.4,0.6c0.2,0,0.4-0.2,0.6-0.3
			c0.2-0.1,0.4-0.3,0.5-0.4C56.6,57.1,56.9,56.7,57.3,56.4z"/>
	</g>
	<g>
		<path class="st4" d="M56.4,49.1c-1.4,0.3-2.9,0.5-4.3,0.6c-0.7,0-1.5,0-2.2,0c-0.4,0-0.7-0.1-1.1-0.2c-0.3-0.1-0.7-0.3-0.8-0.7
			c0.2,0.3,0.5,0.5,0.9,0.6c0.3,0.1,0.7,0.1,1.1,0.2c0.7,0,1.4,0,2.2,0C53.5,49.4,54.9,49.2,56.4,49.1z"/>
	</g>
	<g>
		<path class="st4" d="M54.7,39.1c0.9,0.5,1.7,1.1,2.4,1.7c0.4,0.3,0.7,0.7,1,1.1c0.3,0.4,0.5,0.9,0.5,1.4c-0.1-0.5-0.4-0.9-0.7-1.3
			c-0.3-0.4-0.6-0.7-1-1.1C56.3,40.4,55.5,39.8,54.7,39.1z"/>
	</g>
	<g>
		<path class="st4" d="M56.5,42.8c0.3,0.1,0.5,0.3,0.7,0.5s0.4,0.4,0.5,0.7c-0.3-0.1-0.5-0.3-0.7-0.5S56.6,43.1,56.5,42.8z"/>
	</g>
	<g>
		<path class="st4" d="M59.7,32.7c0.3,0.5,0.6,0.9,1,1.4c0.4,0.4,0.8,0.8,1.2,1.2c0.4,0.4,0.9,0.6,1.5,0.8c0.5,0.2,1.1,0.3,1.6,0.4
			c-0.6,0-1.2-0.1-1.7-0.3c-0.6-0.2-1.1-0.5-1.5-0.8C60.9,34.7,60.1,33.8,59.7,32.7z"/>
	</g>
	<g>
		<path class="st4" d="M65.4,34.1c0.3,0.2,0.5,0.5,0.6,0.8s0.2,0.7,0.1,1C65.9,35.2,65.7,34.7,65.4,34.1z"/>
	</g>
</g>
</svg>
